<svg xmlns="http://www.w3.org/2000/svg" xmlns:xlink="http://www.w3.org/1999/xlink" viewBox="0 0 64 64"><defs><style>.cls-1{fill:url(#linear-gradient);}.cls-2{fill:#8a6762;}.cls-3{fill:url(#linear-gradient-2);}.cls-4{fill:#c7cdd8;}.cls-5{fill:url(#linear-gradient-3);}.cls-6{fill:url(#linear-gradient-4);}.cls-7{fill:#cf4055;}.cls-8{fill:url(#linear-gradient-5);}.cls-9{fill:url(#linear-gradient-6);}.cls-10{fill:url(#linear-gradient-7);}.cls-11{fill:url(#linear-gradient-8);}.cls-12{fill:#231f20;}</style><linearGradient id="linear-gradient" x1="32" y1="63" x2="32" y2="3" gradientUnits="userSpaceOnUse"><stop offset="0" stop-color="#9b756d"/><stop offset="1" stop-color="#bc9388"/></linearGradient><linearGradient id="linear-gradient-2" x1="16.46" y1="59.42" x2="47.54" y2="5.58" gradientUnits="userSpaceOnUse"><stop offset="0" stop-color="#d4d8e1"/><stop offset="1" stop-color="#f3f4f5"/></linearGradient><linearGradient id="linear-gradient-3" x1="32" y1="7" x2="32" y2="1" gradientUnits="userSpaceOnUse"><stop offset="0" stop-color="#a0a6ba"/><stop offset="1" stop-color="#c6ccda"/></linearGradient><linearGradient id="linear-gradient-4" x1="32" y1="37" x2="32" y2="19" gradientUnits="userSpaceOnUse"><stop offset="0" stop-color="#da5466"/><stop offset="1" stop-color="#f4929c"/></linearGradient><linearGradient id="linear-gradient-5" x1="41.19" y1="20.81" x2="41.19" y2="16.81" xlink:href="#linear-gradient-4"/><linearGradient id="linear-gradient-6" x1="22.81" y1="20.81" x2="22.81" y2="16.81" xlink:href="#linear-gradient-4"/><linearGradient id="linear-gradient-7" x1="41.19" y1="38.81" x2="41.19" y2="34.81" xlink:href="#linear-gradient-4"/><linearGradient id="linear-gradient-8" x1="22.81" y1="38.81" x2="22.81" y2="34.81" xlink:href="#linear-gradient-4"/></defs><title>Report</title><g id="Report"><path class="cls-1" d="M42,3h9a4,4,0,0,1,4,4V59a4,4,0,0,1-4,4H13a4,4,0,0,1-4-4V7a4,4,0,0,1,4-4h9"/><path class="cls-2" d="M55,57v2a4,4,0,0,1-4,4H13a4,4,0,0,1-4-4V57a4,4,0,0,0,4,4H51A4,4,0,0,0,55,57Z"/><polygon class="cls-3" points="50 7 50 49 50 58 14 58 14 7 50 7"/><polygon class="cls-4" points="50 56 50 57.65 50 58 14 58 14 56 50 56"/><rect class="cls-5" x="22" y="1" width="20" height="6" rx="3"/><circle class="cls-6" cx="32" cy="28" r="9"/><path class="cls-7" d="M38.36,34.36A9,9,0,0,1,23.06,27a9,9,0,0,0,17.88,0A8.92,8.92,0,0,1,38.36,34.36Z"/><path class="cls-8" d="M41.19,20.81a2,2,0,1,1,1.41-.58A2,2,0,0,1,41.19,20.81Zm0-2Z"/><path class="cls-9" d="M22.81,20.81a2,2,0,0,1-1.41-.58,2,2,0,1,1,1.41.58Zm0-2Z"/><path class="cls-10" d="M41.19,38.81a2,2,0,1,1,1.41-.58A2,2,0,0,1,41.19,38.81Zm0-2Z"/><path class="cls-11" d="M22.81,38.81a2,2,0,0,1-1.41-.58,2,2,0,1,1,1.41.58Zm0-2Z"/><path class="cls-12" d="M51,2H42.44A4,4,0,0,0,39,0H25a4,4,0,0,0-3.44,2H13A5,5,0,0,0,8,7V59a5,5,0,0,0,5,5H51a5,5,0,0,0,5-5V7A5,5,0,0,0,51,2ZM25,8H39v2a1,1,0,0,1-1,1H35.46a.93.93,0,0,1-.82-.42,3,3,0,0,0-5.28,0,.93.93,0,0,1-.82.42H26a1,1,0,0,1-1-1ZM23,8v2a3,3,0,0,0,3,3h2.54a2.89,2.89,0,0,0,2.58-1.47,1,1,0,0,1,1.76,0A2.89,2.89,0,0,0,35.46,13H38a3,3,0,0,0,3-3V8h8V57H15V8Zm2-6H39a2,2,0,0,1,0,4H25a2,2,0,0,1,0-4ZM54,59a3,3,0,0,1-3,3H13a3,3,0,0,1-3-3V7a3,3,0,0,1,3-3h8a3.91,3.91,0,0,0,.56,2H14a1,1,0,0,0-1,1V58a1,1,0,0,0,1,1H50a1,1,0,0,0,1-1V7a1,1,0,0,0-1-1H42.44A3.91,3.91,0,0,0,43,4h8a3,3,0,0,1,3,3Z"/><circle class="cls-12" cx="26" cy="4" r="1"/><circle class="cls-12" cx="38" cy="4" r="1"/><path class="cls-12" d="M19.9,29.11H22a9.85,9.85,0,0,0,2.21,5.33l-.94.94a2,2,0,0,0-2.51,1.92,2,2,0,0,0,2,2,2,2,0,0,0,2-2,1.81,1.81,0,0,0-.08-.51l.94-.93a10,10,0,0,0,5.33,2.2v2.06a1,1,0,1,0,2,0V38.06a10,10,0,0,0,5.33-2.2l.94.93a1.81,1.81,0,0,0-.08.51,2,2,0,1,0,3.42-1.41,2,2,0,0,0-1.93-.51l-.94-.94a9.94,9.94,0,0,0,2.21-5.33h2.06a1,1,0,0,0,0-2H41.86a9.94,9.94,0,0,0-2.21-5.32l.94-.94a2.24,2.24,0,0,0,.51.07,2,2,0,0,0,2-2,2,2,0,0,0-.58-1.41,2,2,0,0,0-2.83,0,2,2,0,0,0-.59,1.41,1.7,1.7,0,0,0,.08.51l-.94.94a9.93,9.93,0,0,0-5.33-2.2V16.11a1,1,0,1,0-2,0v2.06a10,10,0,0,0-5.33,2.2l-.94-.94a1.7,1.7,0,0,0,.08-.51,2,2,0,0,0-.59-1.41,2,2,0,0,0-2.82,0,2,2,0,0,0-.59,1.41,2,2,0,0,0,2,2,2.24,2.24,0,0,0,.51-.07l.94.94A9.85,9.85,0,0,0,22,27.11H19.9a1,1,0,0,0,0,2Zm6.35-5.24a1,1,0,0,0,.71.29,1,1,0,0,0,.71-.29,1,1,0,0,0,0-1.41L27,21.8a8,8,0,0,1,4.9-1.68h0a7.92,7.92,0,0,1,4.89,1.68l-.66.66a1,1,0,0,0,.71,1.7,1,1,0,0,0,.71-.29l.66-.66a8,8,0,0,1,1.68,4.9h0A8,8,0,0,1,38.23,33l-.66-.65a1,1,0,0,0-1.42,0,1,1,0,0,0,0,1.41l.66.66a8,8,0,0,1-4.89,1.68h0A8,8,0,0,1,27,34.43l.66-.66a1,1,0,0,0,0-1.41,1,1,0,0,0-1.42,0L25.6,33a7.91,7.91,0,0,1-1.69-4.87s0,0,0,0a0,0,0,0,1,0,0,7.94,7.94,0,0,1,1.69-4.88Z"/><path class="cls-12" d="M28.38,29.41A2,2,0,1,0,27,28.82,2,2,0,0,0,28.38,29.41Z"/><circle class="cls-12" cx="34.74" cy="25.99" r="1.5"/><path class="cls-12" d="M32.62,33.06a1,1,0,0,0,0-1.41,1,1,0,0,0-1.42,0,1,1,0,0,0,0,1.41A1,1,0,0,0,32.62,33.06Z"/><path class="cls-12" d="M44,44H20a1,1,0,0,0,0,2H44a1,1,0,0,0,0-2Z"/><path class="cls-12" d="M44,48H20a1,1,0,0,0,0,2H44a1,1,0,0,0,0-2Z"/><path class="cls-12" d="M39,52H20a1,1,0,0,0,0,2H39a1,1,0,0,0,0-2Z"/></g></svg>